# xmcd CD database file
#
# Track frame offsets:
#	150
#	49767
#	72548
#	97439
#	145117
#	237111
#
# Disc length: 3815 seconds
#
# Revision: 0
# Processed by: cddbd v1.5.2PL0 Copyright (c) Steve Scherf et al.
# Submitted via: CDex 1.51
#
DISCID=580ee506
DTITLE=Centerpointe Research Institute (Holosync) - The Inside Secrets of How to be Happy, Peacful, and Successful...All the Time [CD6]
DYEAR=2003
DGENRE=New Age
TTITLE0=Principle #8: Good and Bad Generalizations
TTITLE1=Principle #9: The Neutral Universe
TTITLE2=The Gap
TTITLE3=Questions and Answers
TTITLE4=Questions and Answers
TTITLE5=Final Thoughts
EXTD=YEAR: 2003
EXTT0=
EXTT1=
EXTT2=
EXTT3=
EXTT4=
EXTT5=
PLAYORDER=
